<svg width="26" height="26" viewBox="0 0 26 26" fill="none" xmlns="http://www.w3.org/2000/svg">
<g clip-path="url(#clip0_6723_369)">
<path d="M18 11C18 9.07292 17.3151 7.42448 15.9453 6.05469C14.5755 4.6849 12.9271 4 11 4C9.07292 4 7.42448 4.6849 6.05469 6.05469C4.6849 7.42448 4 9.07292 4 11C4 12.9271 4.6849 14.5755 6.05469 15.9453C7.42448 17.3151 9.07292 18 11 18C12.9271 18 14.5755 17.3151 15.9453 15.9453C17.3151 14.5755 18 12.9271 18 11ZM26 24C26 24.5417 25.8021 25.0104 25.4062 25.4062C25.0104 25.8021 24.5417 26 24 26C23.4375 26 22.9688 25.8021 22.5938 25.4062L17.2344 20.0625C15.3698 21.3542 13.2917 22 11 22C9.51042 22 8.08594 21.7109 6.72656 21.1328C5.36719 20.5547 4.19531 19.7734 3.21094 18.7891C2.22656 17.8047 1.44531 16.6328 0.867188 15.2734C0.289062 13.9141 0 12.4896 0 11C0 9.51042 0.289062 8.08594 0.867188 6.72656C1.44531 5.36719 2.22656 4.19531 3.21094 3.21094C4.19531 2.22656 5.36719 1.44531 6.72656 0.867188C8.08594 0.289062 9.51042 0 11 0C12.4896 0 13.9141 0.289062 15.2734 0.867188C16.6328 1.44531 17.8047 2.22656 18.7891 3.21094C19.7734 4.19531 20.5547 5.36719 21.1328 6.72656C21.7109 8.08594 22 9.51042 22 11C22 13.2917 21.3542 15.3698 20.0625 17.2344L25.4219 22.5938C25.8073 22.9792 26 23.4479 26 24Z" fill="orange"/>
</g>
<defs>
<clipPath id="clip0_6723_369">
<rect width="26" height="26" fill="white"/>
</clipPath>
</defs>
</svg>
